<svg width="130" height="203" viewBox="0 0 130 203" fill="none" xmlns="http://www.w3.org/2000/svg">
<path d="M88.0166 69.4927C88.0166 65.0531 92.8393 62.2928 96.6673 64.5414L123.485 80.2943C126.996 82.3568 129.152 86.1245 129.152 90.1968V133.425C129.152 137.864 124.33 140.624 120.502 138.376L93.6843 122.623C90.1731 120.56 88.0166 116.793 88.0166 112.721V69.4927Z" fill="#03FFB3"/>
<path d="M0 6.21626C0 1.77665 4.82268 -0.983624 8.65071 1.26501L35.468 17.0178C38.9793 19.0804 41.1357 22.8481 41.1357 26.9203V70.1482C41.1357 74.5878 36.3131 77.348 32.485 75.0994L5.66772 59.3466C2.15647 57.284 0 53.5163 0 49.4441V6.21626Z" fill="#03FFB3"/>
<path d="M0 69.4928C0 65.0532 4.82268 62.2929 8.65071 64.5415L35.468 80.2944C38.9793 82.3569 41.1357 86.1247 41.1357 90.1969V133.425C41.1357 137.864 36.3131 140.625 32.485 138.376L5.66772 122.623C2.15647 120.561 0 116.793 0 112.721V69.4928Z" fill="#03FFB3"/>
<g opacity="0.6">
<path d="M52.6567 138.376C48.8287 140.624 44.006 137.864 44.006 133.425V90.1968C44.006 86.1245 46.1624 82.3568 49.6737 80.2943L76.491 64.5414C80.319 62.2928 85.1417 65.0531 85.1417 69.4927V112.72C85.1417 116.793 82.9853 120.56 79.474 122.623L52.6567 138.376Z" fill="#03FFB3"/>
<path d="M52.6567 201.653C48.8287 203.902 44.006 201.141 44.006 196.702V153.474C44.006 149.402 46.1624 145.634 49.6737 143.572L76.491 127.819C80.319 125.57 85.1417 128.33 85.1417 132.77V175.998C85.1417 180.07 82.9853 183.838 79.474 185.9L52.6567 201.653Z" fill="#03FFB3"/>
</g>
</svg>
